<?xml version="1.0" encoding="utf-8"?>
<!-- Generator: Adobe Illustrator 22.1.0, SVG Export Plug-In . SVG Version: 6.00 Build 0)  -->
<svg version="1.1" id="Calque_1" xmlns="http://www.w3.org/2000/svg" xmlns:xlink="http://www.w3.org/1999/xlink" x="0px" y="0px"
	 viewBox="0 0 255.1 255.1" style="enable-background:new 0 0 255.1 255.1;" xml:space="preserve">
<style type="text/css">
	.st0{fill:#FFCC00;}
	.st1{fill:#FFFFFF;}
</style>
<path d="M158.1,145.8c-1-1.6-2-3.2-3.2-4.6c-1.3-1.5-2.8-2.7-4.8-3.1c-0.4-0.1-0.8-0.3-1.1-0.4c-2.5-0.8-5.1-1.7-7.8-1.7
	c-1.3,0-2.6,0-3.9,0c-0.3,0-0.6-0.1-0.9-0.2c0.1-0.4,0.2-0.8,0.4-1.1c0.3-0.4,0.6-0.8,0.9-1.2c2.7-4.1,6.2-7.7,8.6-12
	c1.3-2.3,2.7-4.6,3.8-7c1.4-3,2.5-6.1,4-9.1c1.4-2.8,2.3-5.7,2.7-8.8c0.4-3.3,0.1-6.4-1.3-9.5c-1.2-2.7-4-3.1-5.9-2.5
	c-3,0.9-5.8,2.5-7.7,5.2c-1.7,2.3-3.5,4.6-5.3,6.9c-0.6,0.8-1.2,1.7-1.8,2.6c-1.1-0.5-1.1-1.9-2-2.5c-1-0.7-2-1.4-3.1-1.8
	c-0.4-0.1-1.2,0.6-1.8,1c-0.1,0-0.2,0.1-0.2,0.1c-3,1.5-4.8,4.1-5.8,7.1c-1.2,3.6-1.9,7.3-2.7,11c-0.2,0.9-0.2,1.9-0.4,2.9
	c-0.9,4-1,8-1.2,12c-0.2,3.5,0.8,6.9,1.2,10.3c0.2,1.5-0.4,2.3-1.4,3c-0.6,0.4-0.9,0.4-1.4-0.3c-0.7-0.8-1.2-1.7-2-2.4
	c-1.8-1.7-3.9-2.6-6.4-1.4c-0.2,0.1-0.4,0.3-0.7,0.3c-0.3,0-0.7,0.1-0.9-0.1c-0.2-0.3-0.4-0.8-0.3-1.1c0.3-0.7,0.7-1.2,1.2-1.8
	c0.7-0.9,0.7-1.8,0.3-2.8c-0.3-1-1.1-1.3-2.1-1c-1.4,0.5-2.4,1.7-2.2,3.2c0.2,1.6,0.4,3.2,0.9,4.7c0.3,0.9,0.3,1.5-0.4,2.1
	c-3.3,3.1-5.1,7.3-7,11.2c-0.6,1.3-1.1,2.7-0.6,4.2c0.7,1.8,1.5,3.6,2.8,5c1.6,1.8,3.6,2.3,5.9,1.5c0.8-0.3,1.6-0.5,2.3-0.8
	c1.1-0.5,1.9-0.5,2.7,0.5c0.6,0.7,1.4,1.4,2.3,1.8c1.8,0.8,3.6,1.6,5.5,2c4,0.8,7.9,1.7,12,1.5c2.5-0.2,5-0.3,7.5-0.5
	c1.9-0.2,3.8-0.5,5.7-0.9c2.9-0.7,5.6-2.1,8-3.8c3-2,5.6-4.4,7.1-7.7C159.4,152.6,160.2,149.2,158.1,145.8z M122.5,142.5
	c-1.1,3-1.7,6.2-2.3,9.4c-0.3,1.5-0.6,3-0.6,4.5c0,1.7,0.4,3.3,0.7,5c0.2,1.1,0.5,2.2,0.7,3.3c0.1,0.7-0.1,1.1-0.7,0.9
	c-2.8-0.6-5.7-1.2-8.1-2.8c-1.2-0.8-1.8-1.9-1.8-3.2c0-0.6,0-1.1,0-1.7c0.1-3.7,1.4-6.9,3.6-9.8c0.2-0.2,0.3-0.4,0.5-0.5
	c2.4-1.8,4.9-3.7,7.3-5.5c0.1-0.1,0.4,0,0.6,0C122.5,142.1,122.5,142.4,122.5,142.5z M122.2,139.7c-0.8,0.3-1.3,0-1.3-0.8
	c-0.1-1.3-0.2-2.6-0.4-3.9c-0.1-1.1-0.6-2.2-0.6-3.3c-0.1-1.4,0-2.7,0-4.1c0.2-7.4,1.8-14.6,4.1-21.6c0.5-1.7,1.1-3.4,2.3-4.7
	c0.9-1,1.9-2,3.2-1.7c1.4,0.3,1.9,1.7,2.1,3c0.2,1.3,0.1,2.7,0.1,4.1c0.1,3.3-0.4,6.6-1.4,9.8c0,0.1-0.1,0.1-0.1,0.2
	c-0.4,1.4-0.2,2.6,0.5,2.9c0.6,0.3,1.3-0.8,1.7-2.3c0.6-2.2,1.3-4.3,1.8-6.5c1.5-6,4.8-11.1,8.1-16.1c1.1-1.7,2.6-3.3,4.1-4.8
	c0.7-0.7,1.7-1.2,2.6-1.8c0.7-0.4,1.4-0.3,2.1,0.2c0.8,0.5,1.5,1.3,1.8,2.2c0.9,2.4,1.4,4.8,0.7,7.3c-1.4,5.9-3.5,11.6-6.5,16.9
	c-0.4,0.8-0.9,1.5-1.3,2.4c-1.6,3.6-3.7,6.8-6.1,9.9c-2.1,2.7-4.1,5.4-6,8.2c-0.8,1.1-1.7,1.8-3.2,1.9c-2.7,0.2-5.2,1.2-7.6,2.3
	C122.8,139.4,122.5,139.6,122.2,139.7z M127.6,164.4c0.1,0.4,0.2,0.8,0.2,1.2c0,0.6-0.3,0.8-0.9,0.8c-1.1,0-1.5-0.2-2-1.4
	c-0.4-1.1-0.7-2.3-1-3.5c-1-4.1-1.1-8.1,0.2-12.2c0.7-2.2,1.4-4.3,2.2-6.4c0.3-0.8,0.7-1.4,1.1-2.2c0.7-1.6,2.3-1.5,3.4-1.9
	c1,0,1.3,0.7,0.9,1.3c-1.2,1.6-1.8,3.4-2.2,5.3c-0.7,3.4-1.5,6.8-2,10.2C127,158.6,126.8,161.5,127.6,164.4z M136.8,146.4
	c-1.4,2.5-2,5.1-2.2,7.8c-0.1,2-0.3,4-0.2,6c0.1,1.6,0.7,3.1,1.1,4.7c0.1,0.6,0,1-0.7,1c-1.1,0-2.2,0-3.3,0c-0.4-0.9-1-1.8-1.2-2.8
	c-0.4-1.4-0.6-2.8-0.8-4.2c0.1-1,0.2-1.9,0.3-2.7c0.6-4,1.7-7.8,3.7-11.4c0.1-0.2,0.3-0.4,0.3-0.6c0-2.5,1.9-4,3.4-5.6
	c1.1-1.2,2.6-0.6,3.9-0.5c0,0,0.1,0.6,0,0.8C139.2,141.2,138.2,143.9,136.8,146.4z M144.5,164.2c-1.4,0.5-2.9,0.9-4.4,1.2
	c-0.7,0.1-1-0.5-1.2-1c-0.8-2.1-1.3-4.2-1.1-6.3c-0.1-4,0.9-7.6,2.9-10.9c1.4-2.3,2.7-4.8,4.1-7.1c0.7-1.2,1.1-1.3,2.4-0.9
	c1.3,0.4,1.3,0.4,0.7,1.6c-2.9,5.6-3.8,11.6-3.2,17.8c0.1,1.3,0.5,2.5,0.8,3.8C145.8,163.5,145.7,163.8,144.5,164.2z M154.9,145.9
	c0,0.2-0.1,0.3-0.2,0.4c-1.4,2.8-1.9,5.8-1.8,8.9c0,0.7,0,1.4,0.1,2.2c0.1,1.1-0.3,1.9-1.2,2.5c-1.1,0.7-2.3,1.4-3.5,2.1
	c-0.9-1.2-1-2.6-1.2-4.1c-0.1-0.6,0-1.1,0-1.7c-0.1,0-0.2,0-0.3,0c0.3-1.5,0.4-3,0.8-4.5c0.7-2.5,1.6-4.9,2.4-7.3
	c0.1-0.4,0.3-0.8,0.5-1.1c1.5-2.3,2.1-1.9,3.3-0.3c0.3,0.4,0.5,0.8,0.8,1.2C155.1,144.7,155.1,145.3,154.9,145.9z"/>
<path class="st0" d="M154.9,145.9c0,0.2-0.1,0.3-0.2,0.4c-1.4,2.8-1.9,5.8-1.8,8.9c0,0.7,0,1.4,0.1,2.2c0.1,1.1-0.3,1.9-1.2,2.5
	c-1.1,0.7-2.3,1.4-3.5,2.1c-0.9-1.2-1-2.6-1.2-4.1c-0.1-0.6,0-1.1,0-1.7c-0.1,0-0.2,0-0.3,0c0.3-1.5,0.4-3,0.8-4.5
	c0.7-2.5,1.6-4.9,2.4-7.3c0.1-0.4,0.3-0.8,0.5-1.1c1.5-2.3,2.1-1.9,3.3-0.3c0.3,0.4,0.5,0.8,0.8,1.2
	C155.1,144.7,155.1,145.3,154.9,145.9z"/>
<path class="st0" d="M147.9,140.7c-2.9,5.6-3.8,11.6-3.2,17.8c0.1,1.3,0.5,2.5,0.8,3.8c0.2,1.2,0.2,1.4-1,1.8
	c-1.4,0.5-2.9,0.9-4.4,1.2c-0.7,0.1-1-0.5-1.2-1c-0.8-2.1-1.3-4.2-1.1-6.3c-0.1-4,0.9-7.6,2.9-10.9c1.4-2.3,2.7-4.8,4.1-7.1
	c0.7-1.2,1.1-1.3,2.4-0.9C148.5,139.5,148.5,139.5,147.9,140.7z"/>
<path class="st0" d="M131.6,140.2c-1.2,1.6-1.8,3.4-2.2,5.3c-0.7,3.4-1.5,6.8-2,10.2c-0.5,2.9-0.6,5.8,0.2,8.7
	c0.1,0.4,0.2,0.8,0.2,1.2c0,0.6-0.3,0.8-0.9,0.8c-1.1,0-1.5-0.2-2-1.4c-0.4-1.1-0.7-2.3-1-3.5c-1-4.1-1.1-8.1,0.2-12.2
	c0.7-2.2,1.4-4.3,2.2-6.4c0.3-0.8,0.7-1.4,1.1-2.2c0.7-1.6,2.3-1.5,3.4-1.9C131.7,138.9,132.1,139.6,131.6,140.2z"/>
<path class="st0" d="M141,138.9c-1.8,2.3-2.8,5-4.3,7.6c-1.4,2.5-2,5.1-2.2,7.8c-0.1,2-0.3,4-0.2,6c0.1,1.6,0.7,3.1,1.1,4.7
	c0.1,0.6,0,1-0.7,1c-1.1,0-2.2,0-3.3,0c-0.4-0.9-1-1.8-1.2-2.8c-0.4-1.4-0.6-2.8-0.8-4.2c0.1-1,0.2-1.9,0.3-2.7
	c0.6-4,1.7-7.8,3.7-11.4c0.1-0.2,0.3-0.4,0.3-0.6c0-2.5,1.9-4,3.4-5.6c1.1-1.2,2.6-0.6,3.9-0.5C141.1,138.1,141.2,138.7,141,138.9z"
	/>
<path class="st0" d="M120.2,151.9c-0.3,1.5-0.6,3-0.6,4.5c0,1.7,0.4,3.3,0.7,5c0.2,1.1,0.5,2.2,0.7,3.3c0.1,0.7-0.1,1.1-0.7,0.9
	c-2.8-0.6-5.7-1.2-8.1-2.8c-1.2-0.8-1.8-1.9-1.8-3.2c0-0.6,0-1.1,0-1.7c0.1-3.7,1.4-6.9,3.6-9.8c0.2-0.2,0.3-0.4,0.5-0.5
	c2.4-1.8,4.9-3.7,7.3-5.5c0.1-0.1,0.4,0,0.6,0c0,0,0.1,0.3,0,0.4C121.4,145.5,120.8,148.7,120.2,151.9z"/>
<path class="st1" d="M153.7,97.8c-1.4,5.9-3.5,11.6-6.5,16.9c-0.4,0.8-0.9,1.5-1.3,2.4c-1.6,3.6-3.7,6.8-6.1,9.9
	c-2.1,2.7-4.1,5.4-6,8.2c-0.8,1.1-1.7,1.8-3.2,1.9c-2.7,0.2-5.2,1.2-7.6,2.3c-0.3,0.1-0.6,0.3-0.9,0.4c-0.8,0.3-1.3,0-1.3-0.8
	c-0.1-1.3-0.2-2.6-0.4-3.9c-0.1-1.1-0.6-2.2-0.6-3.3c-0.1-1.4,0-2.7,0-4.1c0.2-7.4,1.8-14.6,4.1-21.6c0.5-1.7,1.1-3.4,2.3-4.7
	c0.9-1,1.9-2,3.2-1.7c1.4,0.3,1.9,1.7,2.1,3c0.2,1.3,0.1,2.7,0.1,4.1c0.1,3.3-0.4,6.6-1.4,9.8c0,0.1-0.1,0.1-0.1,0.2
	c-0.4,1.4-0.2,2.6,0.5,2.9c0.6,0.3,1.3-0.8,1.7-2.3c0.6-2.2,1.3-4.3,1.8-6.5c1.5-6,4.8-11.1,8.1-16.1c1.1-1.7,2.6-3.3,4.1-4.8
	c0.7-0.7,1.7-1.2,2.6-1.8c0.7-0.4,1.4-0.3,2.1,0.2c0.8,0.5,1.5,1.3,1.8,2.2C153.9,92.9,154.3,95.3,153.7,97.8z"/>
</svg>
